<?xml version="1.0" encoding="UTF-8"?>
<!DOCTYPE svg PUBLIC "-//W3C//DTD SVG 1.1//EN" "http://www.w3.org/Graphics/SVG/1.1/DTD/svg11.dtd">
<!-- Creator: CorelDRAW -->
<svg xmlns="http://www.w3.org/2000/svg" xml:space="preserve" width="21.2049mm" height="21.2309mm" version="1.1" style="shape-rendering:geometricPrecision; text-rendering:geometricPrecision; image-rendering:optimizeQuality; fill-rule:evenodd; clip-rule:evenodd"
viewBox="0 0 26.35 26.39"
 xmlns:xlink="http://www.w3.org/1999/xlink"
 xmlns:xodm="http://www.corel.com/coreldraw/odm/2003">
 <defs>
  <style type="text/css">
   <![CDATA[
    .fil0 {fill:#0E46B9}
   ]]>
  </style>
 </defs>
 <g id="Camada_x0020_1">
  <metadata id="CorelCorpID_0Corel-Layer"/>
  <path class="fil0" d="M3.41 0.08l-0.01 23.82 -3.4 0.01 -0 1.7 11.93 0 0 -8.52 3.4 -0.01 0.02 -3.35c0.55,-0.13 7.93,0.11 8.53,-0.06l0.01 -8.54 -5.12 -0.02c-0,-0.67 0.06,-4.82 -0.04,-5.09 -0.36,-0.07 -12.68,-0.02 -14.37,-0.02l-0.72 -0c-0.23,0.01 -0.19,0.02 -0.24,0.06zm12.71 17.76c-0.41,0.1 -2.68,-0.03 -3.4,0.04l-0.01 8.5 13.64 0.02 -0 -8.53 -3.4 0 -0.01 -3.41 -6.81 -0.01 -0.01 3.39zm-9.3 -14.15l0 2.78 0 0.38 0.18 0.02 2.92 -0 0.3 -0 0.01 -3.41 -3.41 0 -0 0.24zm0 13.38l3.4 0.01 0.02 -3.4 -3.41 -0 -0 3.39zm11.93 -5.1l3.41 -0 0 -3.4 -3.4 -0.01 -0.01 3.41zm-6.82 -5.13l3.41 0.01 0 -3.41 -3.41 0 -0 3.4zm-5.12 5.12l3.41 0.01 0.01 -3.41 -3.41 0 -0 3.4zm5.12 0l3.4 0.01 0.01 -3.42 -3.41 0.01 -0 3.4z"/>
 </g>
</svg>
