<?xml version="1.0" encoding="UTF-8"?>
<!DOCTYPE svg PUBLIC "-//W3C//DTD SVG 1.1//EN" "http://www.w3.org/Graphics/SVG/1.1/DTD/svg11.dtd">
<!-- Creator: CorelDRAW -->
<svg xmlns="http://www.w3.org/2000/svg" xml:space="preserve" width="7.2521mm" height="7.2144mm" version="1.1" style="shape-rendering:geometricPrecision; text-rendering:geometricPrecision; image-rendering:optimizeQuality; fill-rule:evenodd; clip-rule:evenodd"
viewBox="0 0 2.83 2.82"
 xmlns:xlink="http://www.w3.org/1999/xlink"
 xmlns:xodm="http://www.corel.com/coreldraw/odm/2003">
 <defs>
  <style type="text/css">
   <![CDATA[
    .fil0 {fill:#FEFEFE}
   ]]>
  </style>
 </defs>
 <g id="Camada_x0020_1">
  <metadata id="CorelCorpID_0Corel-Layer"/>
  <path class="fil0" d="M1.19 2.82l0 -0.99 -0.36 -0 0 -0.41 0.36 -0c0,-0.32 -0.06,-0.81 0.45,-0.86 0.04,-0 0.38,-0.01 0.4,0.04l-0 0.33c-0.45,-0 -0.41,0.07 -0.41,0.49l0.39 0 -0.06 0.41 -0.33 -0 -0 0.99c0.67,-0.1 1.25,-0.72 1.19,-1.51 -0.06,-0.72 -0.64,-1.31 -1.4,-1.31 -0.77,-0 -1.36,0.59 -1.42,1.3 -0.07,0.8 0.52,1.41 1.19,1.52z"/>
 </g>
</svg>
