<?xml version="1.0" encoding="UTF-8"?>
<!DOCTYPE svg PUBLIC "-//W3C//DTD SVG 1.1//EN" "http://www.w3.org/Graphics/SVG/1.1/DTD/svg11.dtd">
<!-- Creator: CorelDRAW -->
<svg xmlns="http://www.w3.org/2000/svg" xml:space="preserve" width="24.4896mm" height="19.5192mm" version="1.1" style="shape-rendering:geometricPrecision; text-rendering:geometricPrecision; image-rendering:optimizeQuality; fill-rule:evenodd; clip-rule:evenodd"
viewBox="0 0 38.2 30.45"
 xmlns:xlink="http://www.w3.org/1999/xlink"
 xmlns:xodm="http://www.corel.com/coreldraw/odm/2003">
 <defs>
  <style type="text/css">
   <![CDATA[
    .fil0 {fill:#0E46B9}
   ]]>
  </style>
 </defs>
 <g id="Camada_x0020_1">
  <metadata id="CorelCorpID_0Corel-Layer"/>
  <path class="fil0" d="M5.45 17.54l0 11.42c0,0.77 0.72,1.49 1.49,1.49l9.18 0 0 -9.1 5.97 0 0 9.1 9.18 0c0.82,0 1.49,-0.84 1.49,-1.34l0 -11.56c0,-0.26 -1.41,-1.31 -1.6,-1.46 -1.35,-1.05 -2.91,-2.46 -4.3,-3.54l-7.28 -6c-0.69,-0.55 -0.3,-0.51 -2.18,1.01 -2.54,2.06 -5.23,4.38 -7.74,6.36 -0.31,0.24 -0.56,0.49 -0.85,0.72l-2.99 2.46c-0.13,0.1 -0.37,0.23 -0.37,0.45zm-5.45 -2.16c0,0.49 0.52,0.99 0.92,1.47 1.33,1.57 1.21,1.43 3.54,-0.52 0.35,-0.3 0.67,-0.55 1.01,-0.85 1.81,-1.61 4.44,-3.6 6.27,-5.22l7.37 -6.14c0.18,0.12 0.29,0.24 0.49,0.4l8.34 6.96c0.19,0.16 0.34,0.29 0.53,0.44l4.16 3.45c0.17,0.14 0.36,0.29 0.53,0.44 0.2,0.17 0.33,0.27 0.52,0.45l1.59 1.32c0.55,0.44 0.88,0.53 1.47,-0.09 0.14,-0.15 0.15,-0.18 0.27,-0.33 0.11,-0.13 0.18,-0.18 0.29,-0.31 0.19,-0.22 0.32,-0.39 0.5,-0.62 0.25,-0.32 0.38,-0.56 0.42,-0.77l0 -0.2c-0.07,-0.4 -0.54,-0.7 -1.28,-1.3l-3.66 -3.05c-0.37,-0.33 -0.51,-0.19 -0.51,-0.83l-0 -9.4c-0.05,-0.32 -0.36,-0.6 -0.74,-0.6l-4.63 0c-0.92,0 -0.75,1.3 -0.75,2.24 0,1.02 0,2.04 0,3.06 -0.18,-0.12 -0.26,-0.16 -0.43,-0.32 -0.18,-0.16 -0.28,-0.21 -0.45,-0.37 -0.29,-0.27 -0.55,-0.47 -0.85,-0.72 -0.67,-0.54 -3.95,-3.37 -4.38,-3.6 -1.01,-0.55 -2.19,-0.47 -3.13,0.17l-10.55 8.77c-1.78,1.55 -4.18,3.39 -5.86,4.89 -0.31,0.28 -0.99,0.67 -0.99,1.17z"/>
 </g>
</svg>
