<?xml version="1.0" encoding="UTF-8"?>
<!DOCTYPE svg PUBLIC "-//W3C//DTD SVG 1.1//EN" "http://www.w3.org/Graphics/SVG/1.1/DTD/svg11.dtd">
<!-- Creator: CorelDRAW -->
<svg xmlns="http://www.w3.org/2000/svg" xml:space="preserve" width="3.5708mm" height="4.7533mm" version="1.1" style="shape-rendering:geometricPrecision; text-rendering:geometricPrecision; image-rendering:optimizeQuality; fill-rule:evenodd; clip-rule:evenodd"
viewBox="0 0 0.68 0.9"
 xmlns:xlink="http://www.w3.org/1999/xlink"
 xmlns:xodm="http://www.corel.com/coreldraw/odm/2003">
 <defs>
  <style type="text/css">
   <![CDATA[
    .fil0 {fill:#0E46B9}
   ]]>
  </style>
 </defs>
 <g id="Camada_x0020_1">
  <metadata id="CorelCorpID_0Corel-Layer"/>
  <path class="fil0" d="M0.09 0.29c-0,0.02 -0,0.04 -0,0.06 0,0.02 0,0.05 0.01,0.07 0.01,0.03 0.02,0.06 0.03,0.08 0.01,0.03 0.03,0.06 0.04,0.08 0.02,0.03 0.04,0.06 0.06,0.09 0.02,0.03 0.04,0.05 0.06,0.07l0.02 0.02c0.01,0.02 0.03,0.03 0.04,0.04 0.01,-0.01 0.02,-0.02 0.03,-0.03l0.01 -0.01c0.01,-0.02 0.03,-0.03 0.04,-0.05 0.01,-0.02 0.03,-0.03 0.04,-0.05l0.04 -0.05c0.01,-0.01 0.02,-0.02 0.02,-0.04 0.01,-0.01 0.01,-0.02 0.02,-0.04l0.02 -0.05c0.02,-0.04 0.03,-0.1 0.03,-0.15 0,-0.04 -0.01,-0.08 -0.02,-0.12l-0.01 -0.02c-0,-0.01 -0.01,-0.01 -0.01,-0.02l-0 -0c-0.01,-0.01 -0.02,-0.02 -0.03,-0.03 -0.04,-0.04 -0.09,-0.06 -0.14,-0.07 -0.05,-0.01 -0.11,-0 -0.15,0.02 -0.03,0.01 -0.05,0.03 -0.07,0.05 -0.02,0.02 -0.04,0.04 -0.05,0.07 -0.01,0.02 -0.02,0.04 -0.02,0.06zm0.17 0.04c-0,0.01 -0,0.01 -0,0.01 0,0.01 0,0.02 0.01,0.03 0,0.01 0.01,0.02 0.02,0.03 0.01,0.01 0.02,0.02 0.03,0.02 0.01,0 0.02,0 0.04,0 0.02,0 0.04,-0.01 0.05,-0.02 0.01,-0.01 0.01,-0.02 0.02,-0.03 0,-0.01 0.01,-0.02 0.01,-0.03 0,-0.02 -0.01,-0.04 -0.02,-0.05 -0.01,-0.01 -0.02,-0.02 -0.03,-0.02 -0.01,-0 -0.02,-0 -0.04,-0 -0.01,0 -0.03,0.01 -0.04,0.01 -0.01,0.01 -0.02,0.02 -0.03,0.04 -0,0 -0,0.01 -0,0.02zm0.11 0.17c-0.01,0 -0.02,0 -0.04,0 -0.04,0 -0.07,-0.01 -0.1,-0.04 -0.03,-0.02 -0.05,-0.06 -0.06,-0.09 -0,-0.01 -0,-0.02 -0,-0.03 0,-0.01 0,-0.02 0,-0.03 0,-0.02 0.01,-0.03 0.02,-0.04 0.01,-0.01 0.02,-0.03 0.03,-0.04 0.02,-0.02 0.06,-0.04 0.09,-0.05 0.03,-0.01 0.07,-0 0.1,0.01 0.01,0 0.02,0.01 0.03,0.02 0.01,0.01 0.01,0.01 0.02,0.02 0.01,0.01 0.01,0.01 0.02,0.02 0,0.01 0.01,0.02 0.01,0.03 0,0 0,0.01 0.01,0.02 0,0.02 0.01,0.03 0.01,0.05 0,0.01 -0,0.02 -0,0.03 -0,0.01 -0.01,0.02 -0.01,0.03 -0.01,0.02 -0.02,0.03 -0.03,0.05 -0.01,0.01 -0.03,0.02 -0.05,0.03 -0.01,0.01 -0.02,0.01 -0.04,0.01zm-0.03 0.4l-0.01 -0c-0,-0 -0.01,-0 -0.01,-0 -0,-0 -0.01,-0 -0.01,-0.01l-0.04 -0.04c-0.02,-0.02 -0.04,-0.04 -0.06,-0.06 -0.05,-0.05 -0.1,-0.12 -0.13,-0.19 -0.02,-0.04 -0.04,-0.08 -0.06,-0.13 -0.01,-0.04 -0.02,-0.09 -0.02,-0.14 0,-0.02 0,-0.05 0.01,-0.07 0.01,-0.02 0.01,-0.05 0.02,-0.07 0.01,-0.02 0.02,-0.04 0.03,-0.05 0.01,-0.02 0.02,-0.03 0.04,-0.05 0,-0 0.01,-0 0.01,-0.01l0 -0c0.02,-0.01 0.03,-0.02 0.04,-0.03 0.01,-0.01 0.03,-0.02 0.05,-0.03 0.02,-0.01 0.05,-0.02 0.07,-0.02 0.03,-0 0.05,-0.01 0.08,-0.01 0.03,0 0.07,0.01 0.1,0.02 0.03,0.01 0.07,0.03 0.09,0.05 0.02,0.01 0.02,0.02 0.02,0.02l0.01 0.01c0.01,0.01 0.01,0.01 0.02,0.01l0.01 0.01c0.03,0.03 0.05,0.06 0.06,0.1 0.02,0.04 0.02,0.08 0.02,0.12 0,0.07 -0.01,0.13 -0.04,0.19 -0.02,0.06 -0.06,0.11 -0.09,0.17 -0.05,0.07 -0.1,0.12 -0.16,0.19l-0.01 0.01c-0,0 -0.01,0.01 -0.01,0.01 -0,0 -0.01,0 -0.01,0l-0 0z"/>
 </g>
</svg>
