<?xml version="1.0" encoding="UTF-8"?>
<!DOCTYPE svg PUBLIC "-//W3C//DTD SVG 1.1//EN" "http://www.w3.org/Graphics/SVG/1.1/DTD/svg11.dtd">
<!-- Creator: CorelDRAW -->
<svg xmlns="http://www.w3.org/2000/svg" xml:space="preserve" width="7.9527mm" height="7.9221mm" version="1.1" style="shape-rendering:geometricPrecision; text-rendering:geometricPrecision; image-rendering:optimizeQuality; fill-rule:evenodd; clip-rule:evenodd"
viewBox="0 0 3.77 3.76"
 xmlns:xlink="http://www.w3.org/1999/xlink"
 xmlns:xodm="http://www.corel.com/coreldraw/odm/2003">
 <defs>
  <style type="text/css">
   <![CDATA[
    .fil0 {fill:#0E46B9}
   ]]>
  </style>
 </defs>
 <g id="Camada_x0020_1">
  <metadata id="CorelCorpID_0Corel-Layer"/>
  <path class="fil0" d="M2.06 2.67c0.28,0.25 0.74,0.75 1.05,1.04 0.19,0.17 0.45,-0.2 0.6,-0.35 0.06,-0.07 0.1,-0.15 0.02,-0.25 -0.29,-0.34 -0.74,-0.74 -1.05,-1.06 0.13,-0.07 1.04,-0.57 1.05,-0.65 0.01,-0.09 -0.11,-0.11 -0.26,-0.16 -0.2,-0.07 -3.37,-1.3 -3.44,-1.24 -0.07,0.05 0.03,0.23 0.06,0.3 0.08,0.21 1.2,3.4 1.31,3.41 0.1,0.01 0.61,-0.95 0.67,-1.05z"/>
 </g>
</svg>
